<?xml version="1.0" encoding="UTF-8"?>
<svg id="Capa_1" xmlns="http://www.w3.org/2000/svg" width="2450" height="667" version="1.1" viewBox="0 0 2450 667">
  <!-- Generator: Adobe Illustrator 30.0.0, SVG Export Plug-In . SVG Version: 2.1.1 Build 123)  -->
  <defs>
    <style>
      .st0 {
        fill: #fff;
      }
    </style>
  </defs>
  <polygon class="st0" points="451.3 24.9 410.4 24.9 299.9 24.9 258.9 24.9 25 642.1 207.6 642.1 294.3 377.7 195.7 306.1 317.5 306.1 355.1 190.3 392.7 306.1 514.5 306.1 416 377.7 502.6 642.1 685.2 642.1 451.3 24.9"/>
  <path class="st0" d="M888.8,503.1h-21.3l130.2-323.6h21.7l127.9,323.8h-21.3l-116.7-304.6h-.9l-119.6,304.3Z"/>
  <path class="st0" d="M1485,503.1h-21.4l130.2-323.6h21.8l127.9,323.8h-21.3l-116.6-304.3h-.7l-120,304.1Z"/>
  <path class="st0" d="M1203.7,179.5h20.2v306.6h183.7v17.2h-203.9V179.5Z"/>
  <path class="st0" d="M1799.8,179.5h135.2c13.4,0,26.8,1.4,39.9,4.3,11.7,2.6,22.8,7.4,32.7,14.1,9.4,6.5,17,15.4,22,25.6,5.7,12.3,8.4,25.8,7.9,39.4.5,19.9-6.1,39.4-18.6,54.9-12.9,15.4-31.1,25.3-51,27.9v.9c12.6,1,24.7,5,35.3,11.8,8.2,5.6,14.9,13.3,19.3,22.2,4.3,9.2,7,19,8.1,29.1,1.2,10.5,1.8,21.1,1.8,31.7v18.6c0,5.7.3,11.4.9,17,.6,5,1.6,9.9,3,14.7,1.1,4.1,3.1,7.9,5.7,11.3h-22.2c-4.4-8.2-6.8-17.2-7-26.5-.5-10.1-.7-20.6-.7-31.5s-.5-21.7-1.4-32.4c-.7-10.1-3.7-20-8.6-28.8-5.4-8.9-13.4-15.9-22.9-20.2-10.5-5.1-25.2-7.7-44.2-7.7h-115.2v147.4h-19.9V179.5ZM1935,338.7c11.1,0,22.2-1.4,32.9-4.3,9.6-2.5,18.5-7.1,26.1-13.4,7.4-6.3,13.3-14.2,17.2-23.1,4.5-10.6,6.7-22.1,6.4-33.6.3-10.8-2-21.4-6.8-31-4.3-8.3-10.5-15.6-18.1-21.1-7.9-5.6-16.9-9.6-26.3-11.8-10.3-2.4-20.8-3.6-31.3-3.6h-115.2v141.9h115.2Z"/>
  <path class="st0" d="M2320.7,264.1c-.3-12.6-3.3-24.9-8.8-36.2-5.2-10.1-12.5-19-21.6-25.9-9.7-7.2-20.7-12.6-32.5-15.6-13.4-3.5-27.2-5.2-41-5-9.8,0-19.6,1.1-29.3,3.2-10.2,2-20,5.8-29,11.1-8.9,5.3-16.4,12.6-22,21.3-6,10-9,21.6-8.6,33.3-.5,11.4,2.9,22.5,9.5,31.8,6.7,8.4,15.2,15.2,24.9,19.7,11.3,5.3,23.1,9.3,35.3,12,13.3,3,26.8,5.9,40.4,8.6s27.4,6,40.4,9.8c12.4,3.5,24.3,8.7,35.3,15.4,10.3,6.3,18.9,15,25.2,25.2,6.7,11.9,10,25.5,9.5,39.2.5,15-3.3,29.8-10.9,42.7-7,11.2-16.3,20.8-27.4,28.1-11.2,7.3-23.7,12.6-36.7,15.6-12.7,3.1-25.7,4.7-38.8,4.7-18,.1-36-1.9-53.5-6.1-15.7-3.6-30.5-10.4-43.5-19.9-12.5-9.3-22.5-21.6-29.3-35.6-7.5-16.6-10.9-34.8-10.1-53.1h20.2c-1.4,15.5,1.3,31,7.7,45.1,5.8,12,14.5,22.4,25.2,30.3,11.4,8.1,24.2,13.9,37.9,17,15,3.5,30.4,5.2,45.8,5,10.4,0,20.9-1.3,31-3.6,10.7-2.3,21-6.5,30.3-12.3,9.3-5.8,17.2-13.5,23.1-22.7,6.6-10.6,9.8-22.9,9.3-35.3.5-11.8-2.8-23.5-9.5-33.3-6.6-8.9-15.3-16-25.2-20.8-11.2-5.6-23.1-9.9-35.3-12.7-13.1-3.2-26.6-6.1-40.4-8.8-13.6-2.7-27-5.9-40.4-9.5-12.4-3.2-24.3-8.2-35.3-14.7-10.1-6-18.6-14.2-24.9-24-6.8-11.4-10.1-24.6-9.5-37.9-.4-13.9,3-27.6,9.7-39.7,6.2-10.8,14.9-19.9,25.2-26.8,10.8-7,22.8-12.1,35.3-15.1,12.6-3.1,25.5-4.7,38.5-4.7,15.9,0,31.7,1.9,47.1,5.8,13.9,3.4,26.9,9.4,38.6,17.7,11.2,8.1,20.3,18.8,26.6,31.1,7,14.3,10.9,29.9,11.3,45.8h-19.9Z"/>
  <path class="st0" d="M2405.1,179.5h19.9v323.6h-19.9V179.5Z"/>
</svg>